<?xml version="1.0" encoding="utf-8"?>
<!-- Generator: Adobe Illustrator 24.0.1, SVG Export Plug-In . SVG Version: 6.00 Build 0)  -->
<svg version="1.1" id="Livello_1" xmlns="http://www.w3.org/2000/svg" xmlns:xlink="http://www.w3.org/1999/xlink" x="0px" y="0px"
	 viewBox="0 0 381 170.7" style="enable-background:new 0 0 381 170.7;" xml:space="preserve">
<style type="text/css">
	.st0{fill:#FFFFFF;}
</style>
<g transform="translate(0.000000,500.000000) scale(0.100000,-0.100000)">
	<path class="st0" d="M3352.6,4949.3c-30-16.6-69.4-103.7-53.9-118.2c19.7-17.6,139.9-54.9,148.2-46.6
		c11.4,12.5,32.2,75.7,32.2,98.5c0,25.9-41.4,69.4-72.5,75.7C3392,4961.8,3368.1,4957.6,3352.6,4949.3z M3425.2,4900.6
		c14.5-14.5,16.6-56,3.1-64.3c-9.4-6.2-72.5,11.4-84.9,23.8c-4.2,3.1-3.1,16.6,2,30C3354.7,4916.1,3403.3,4922.4,3425.2,4900.6z"/>
	<path class="st0" d="M90.3,4203.2v-699.5h108.8h108.8v520.2c0,286,3.1,516.1,8.3,511.9c4.2-4.2,103.7-204.2,221.7-444.6
		l213.6-437.4h79.8h79.8l214.5,437.3c118.2,240.5,217.6,440.4,221.7,444.6c4.2,4.2,7.2-225.9,7.2-511.9v-520.2h108.8h108.8v699.6
		v699.5h-140.9h-139.9l-229-463.3l-229-463.3l-232.2,463.3l-231.1,463.3h-140H90.3V4203.2z"/>
	<path class="st0" d="M1748.4,4204.1v-700.6h114h114l2,210.4l3.1,209.3l243.6,6.2c209.3,4.2,252.8,8.3,307.8,26.9
		c168.9,56,272.5,172,309.9,344.1c59.1,280.8-68.5,501.6-333.7,577.2c-50.8,15.5-121.3,18.6-410.4,22.8l-350.2,4.2L1748.4,4204.1
		L1748.4,4204.1z M2484.1,4658.1c25.9-12.5,60.2-35.2,75.7-51.8c52.8-52.8,64.3-84,64.3-185.6c0-123.3-26.9-181.4-107.7-230
		c-74.6-44.6-157.6-56.9-363.8-52.8l-171,3.1l-3.1,272.5l-2,272.5l230-3.1C2415.8,4679.9,2441.6,4677.8,2484.1,4658.1z"/>
	<path class="st0" d="M3578.6,4874.7c-7.2-16.6-1.1-22.8,75.7-82.9c13.5-10.3,5.2-12.5-46.6-13.5c-60.2,0-76.6-8.3-76.6-37.3
		c0-2,39.4-4.2,88-4.2c75.7,0,89.1,3.1,97.4,19.7c9.4,16.6,1.1,28-54.9,77.7c-36.3,32.2-68.5,58-71.5,58
		C3586.9,4892.4,3581.7,4884.1,3578.6,4874.7z"/>
	<path class="st0" d="M3255.2,4742.1c-8.3-21.7,3.1-34.2,37.3-41.4c47.7-10.3,45.6-22.8-7.2-36.3c-100.5-24.9-99.5-49.7,1.1-84.9
		c67.4-23.8,77.7-25.9,82.9-11.4c8.3,19.7,10.3,17.6-40.5,39.4l-41.4,18.6l54.9,16.6c69.4,20.8,89.1,47.7,46.6,64.3
		C3259.3,4756.5,3260.4,4756.5,3255.2,4742.1z"/>
	<path class="st0" d="M3483.2,4613.6l-22.8-61.1l77.7-28c41.4-15.5,78.8-26.9,80.8-24.9c2,2,13.5,29.1,25.9,60.2
		c17.6,44.6,18.6,58,8.3,64.3c-9.4,6.2-18.6-3.1-32.2-32.2c-19.7-44.6-56-60.2-42.5-17.6c20.8,62.2-3.1,94.3-25.9,33.2
		c-7.2-19.7-16.6-36.3-21.7-36.3c-18.6,0-20.8,20.8-6.2,56c8.3,19.7,12.5,38.3,8.3,41.4C3517.4,4685.1,3502.9,4669.5,3483.2,4613.6z
		"/>
	<path class="st0" d="M3163,4495.4c-35.2-84-35.2-84,46.6-115.1c40.5-14.5,75.7-26.9,77.7-26.9c8.3,0,46.6,116,41.4,125.4
		c-12.5,18.6-24.9,9.4-36.3-26.9c-12.5-39.4-24.9-51.8-41.4-41.4c-6.2,4.2-5.2,18.6,4.2,41.4c8.3,18.6,12.5,37.3,8.3,40.5
		c-14.5,15.5-32.2,4.2-38.3-24.9c-7.2-35.2-16.6-43.5-34.2-32.2c-10.3,6.2-9.4,15.5,2,44.6c9.4,19.7,12.5,39.4,9.4,43.5
		C3188.8,4536.8,3177.5,4528.6,3163,4495.4z"/>
	<path class="st0" d="M3430.4,4434.3c-28-32.2-49.7-90.2-38.3-101.6c5.2-5.2,40.5-20.8,78.8-34.2l69.4-24.9l16.6,46.6
		c21.7,64.3,19.7,81.9-10.3,110.9C3513.2,4465.4,3459.3,4466.3,3430.4,4434.3z M3518.4,4403.2c18.6-18.6,15.5-70.5-3.1-70.5
		c-33.2,0-90.2,30-81.9,43.5C3457.3,4417.7,3492.6,4429.1,3518.4,4403.2z"/>
	<path class="st0" d="M3086.3,4286.1c-25.9-68.5-25.9-73.6-7.2-80.8c9.4-4.2,16.6,3.1,20.8,18.6l6.2,24.9l62.2-22.8
		c53.9-19.7,64.3-20.8,72.5-7.2c12.5,20.8,8.3,24.9-56.9,46.6c-54.9,18.6-56.9,21.7-51.8,48.8c5.2,21.7,3.1,29.1-8.3,29.1
		C3113.3,4343.1,3098.7,4320.3,3086.3,4286.1z"/>
	<path class="st0" d="M3029.3,4129.6c-8.3-20.8-11.4-18.6,45.6-37.3l46.6-15.5l-62.2-18.6c-56-16.6-76.6-29.1-77.7-47.7
		c0-7.2,138.8-61.1,156.5-61.1c5.2,0,9.4,8.3,9.4,18.6c0,13.5-12.5,23.8-42.5,32.2c-23.8,7.2-40.5,14.5-37.3,17.6
		c2,2,29.1,12.5,60.2,22.8c80.8,25.9,78.8,45.6-8.3,78.8C3035.6,4151.4,3037.6,4151.4,3029.3,4129.6z"/>
	<path class="st0" d="M2945.4,3881.9c-37.3-36.3-36.3-99.5,1.1-128.5c72.5-56.9,166.8,15.5,135.7,105.7
		C3063.4,3913,2988.8,3926.4,2945.4,3881.9z M3043.7,3846.7c14.5-28,13.5-38.3-6.2-56.9c-23.8-23.8-52.8-20.8-71.5,8.3
		c-13.5,19.7-14.5,30-5.2,46.6C2975.4,3873.6,3028.2,3874.7,3043.7,3846.7z"/>
	<path class="st0" d="M2874.9,3677.7c-25.9-19.7-62.2-111.9-45.6-117.1c6.2-2,38.3-13.5,69.4-25.9c68.5-24.9,78.8-25.9,87.1-4.2
		c4.2,11.4-1.1,18.6-14.5,21.7c-30,8.3-21.7,38.3,10.3,43.5c25.9,3.1,41.4,17.6,41.4,38.3c0,7.2-10.3,9.4-25.9,6.2
		c-17.6-3.1-32.2,2-43.5,16.6C2928.8,3685,2896.6,3693.3,2874.9,3677.7z M2929.8,3618.6c0-28-15.5-42.5-39.4-35.2
		c-26.9,6.2-29.1,25.9-7.2,48.8C2901.8,3650.8,2929.8,3643.6,2929.8,3618.6z"/>
	<path class="st0" d="M2783.7,3474.6c-5.2-15.5-15.5-41.4-21.7-56.9c-6.2-15.5-9.4-30-7.2-32.2c11.4-11.4,147.1-56.9,155.4-51.8
		c17.6,10.3,9.4,32.2-16.6,43.5c-22.8,10.3-23.8,14.5-13.5,44.6c8.3,25.9,8.3,34.2-3.1,41.4c-10.3,6.2-18.6,0-28-24.9
		c-17.6-41.4-16.6-40.5-36.3-32.2c-15.5,5.2-15.5,9.4-2,42.5c18.6,44.6,18.6,41.4,0,48.8C2799.2,3501.5,2790.9,3494.3,2783.7,3474.6
		z"/>
</g>
</svg>
